<svg width="737" height="488" viewBox="0 0 737 488" fill="none" xmlns="http://www.w3.org/2000/svg">
<g filter="url(#filter0_d_1_287)">
<g filter="url(#filter1_d_1_287)">
<path d="M675.281 313.219C721.794 346.844 751.311 450.933 691.382 473.649H598.804C599.341 472.229 601.756 468.418 612.042 461.245C634.136 445.926 651.578 445.926 643.975 432.551C640.129 425.826 628.858 429.413 621.971 432.85C611.953 437.856 602.919 449.065 595.137 462.365L592.543 466.55C594.958 454.818 623.402 424.481 639.055 412.002C654.708 399.524 635.03 388.241 618.661 402.064C602.292 415.888 591.648 448.019 592.543 466.55L590.575 469.838L594.868 444.731C593.169 429.338 599.341 397.88 590.575 395.937C558.732 388.689 585.924 445.478 590.575 469.912L588.249 473.649H558.732C559 473.649 561.952 473.499 561.415 467.895C561.057 464.159 556.943 460.722 553.723 455.865C551.934 453.1 550.324 449.887 549.966 445.926C551.755 445.179 552.739 444.507 552.739 444.507L543.526 357.081L543.436 326.221C551.665 324.726 558.553 321.962 558.642 316.731C558.911 301.488 545.404 268.386 534.492 250.676V249.182C546.12 251.423 557.39 253.217 557.39 253.217C557.39 253.217 559.894 250.303 561.057 246.94C562.22 243.578 559.268 235.881 556.317 227.587C553.365 219.293 548.445 199.641 548.445 199.641L547.73 199.342C553.454 189.03 559.447 179.765 562.041 174.758C566.782 165.941 557.569 165.567 547.909 174.758C545.851 176.701 543.884 178.943 541.916 181.408C543.884 174.534 539.411 170.2 534.313 174.833C533.239 175.879 531.987 177 530.556 178.42L530.466 178.345L516.513 174.683C519.822 172.965 523.042 168.93 522.506 163.849C521.79 157.049 519.107 150.996 511.772 146.662C511.772 146.662 517.675 145.168 515.887 141.731C513.561 137.397 507.479 131.942 500.591 127.608C502.738 127.907 507.21 124.32 503.543 122.153C499.876 119.986 497.46 122.079 497.729 125.89C492.004 122.676 486.011 120.435 481.36 120.435C469.285 120.36 461.682 126.562 467.317 135.006V135.08C464.454 137.322 463.292 141.432 465.349 146.289C456.404 161.906 464.365 179.017 475.904 175.505C475.546 175.804 475.278 176.103 475.009 176.477L453.989 180.063C453.81 180.138 453.631 180.288 453.453 180.362C439.857 188.731 419.91 206.441 419.91 206.441C419.91 206.441 396.028 212.119 388.335 213.913H380.374C381.627 207.412 381.984 201.285 381.269 195.606C375.634 150.324 428.318 92.7874 491.02 91.293C553.723 89.7985 627.874 142.104 626.085 204.871C624.296 267.638 628.769 279.594 675.281 313.219Z" fill="white"/>
</g>
<path d="M643.981 432.55C651.584 445.925 634.142 445.925 612.048 461.243C601.672 468.417 599.347 472.228 598.81 473.647H588.255L590.581 469.911L592.549 466.623L595.143 462.439C602.925 449.138 611.959 437.93 621.977 432.924C628.864 429.412 640.135 425.825 643.981 432.55Z" fill="#3DA259"/>
<path d="M618.569 402.138C635.027 388.314 654.706 399.523 639.052 412.076C623.399 424.63 594.955 454.892 592.54 466.624C591.645 448.093 602.2 415.962 618.569 402.138Z" fill="#3DA259"/>
<path d="M588.255 473.648H598.81C598.631 474.022 598.631 474.246 598.631 474.246L588.255 473.648Z" fill="white"/>
<path d="M594.776 444.729L590.483 469.836C585.831 445.476 558.64 388.612 590.483 395.86C599.249 397.878 593.077 429.336 594.776 444.729Z" fill="#3DA259"/>
<path d="M561.413 467.895C561.95 473.5 558.998 473.649 558.729 473.649H512.485C510.16 473.649 508.55 471.781 509.265 469.913C510.16 467.746 512.575 465.131 519.104 463.711C522.414 462.964 525.187 461.768 527.512 460.423C525.813 462.142 523.04 465.803 528.407 466.625C533.237 467.372 547.101 462.665 553.631 455.94C556.851 460.722 560.966 464.159 561.413 467.895Z" fill="#7FF2C9"/>
<path d="M535.839 234.162V233.638L536.554 223.177C539.059 215.63 543.352 207.187 547.735 199.341L548.451 199.64C548.451 199.64 553.37 219.292 556.322 227.586C559.274 235.88 562.225 243.577 561.063 246.939C559.9 250.302 557.395 253.216 557.395 253.216C557.395 253.216 546.214 251.422 534.497 249.181C526.983 247.761 519.201 246.117 514.192 244.623C514.371 244.174 514.461 243.726 514.55 243.203C514.997 240.737 514.64 237.524 512.046 233.937C518.844 233.937 528.593 234.087 535.839 234.162Z" fill="#152441"/>
<path d="M543.348 326.145C530.646 328.461 514.457 327.639 514.457 327.639C514.457 327.639 504.707 281.535 494.331 264.573L508.553 268.384L534.493 267.039V250.6C545.316 268.384 558.912 301.486 558.643 316.655C558.464 321.886 551.577 324.65 543.348 326.145Z" fill="#152441"/>
<path d="M553.629 455.862C547.1 462.587 533.235 467.22 528.405 466.548C523.038 465.726 525.811 462.064 527.511 460.346C533.951 456.535 536.724 451.005 536.813 448.017C542.27 448.764 547.1 447.195 549.962 445.924C550.32 449.885 551.84 453.098 553.629 455.862Z" fill="#F3BAAB"/>
<path d="M536.729 448.019C534.493 447.72 532.078 447.048 529.752 445.778L516.603 390.483C516.603 390.483 512.847 375.912 507.122 357.306C501.218 337.878 493.258 314.116 485.386 297.827H484.671C483.687 282.509 482.166 265.547 481.182 255.384C485.386 256.281 492.453 255.16 492.453 255.16V264.127L494.241 264.575C504.617 281.612 514.367 327.641 514.367 327.641C514.367 327.641 530.468 328.463 543.259 326.147L543.348 357.007L552.561 444.433C552.561 444.433 551.577 445.105 549.788 445.852C547.105 447.197 542.275 448.767 536.729 448.019Z" fill="#293855"/>
<path d="M536.639 223.179L535.923 233.64V234.163C528.678 234.088 518.839 233.939 512.041 233.864C511.236 233.266 510.431 232.519 509.536 231.772L509.715 231.623C509.715 231.623 509.894 225.196 509.715 218.994L520.717 220.638L536.639 223.179Z" fill="#C1CEDC"/>
<path d="M534.399 250.6V267.039L508.46 268.384L509.533 243.651L514.363 243.128C514.274 243.651 514.184 244.1 514.005 244.548C519.014 246.042 526.707 247.686 534.31 249.106V250.6H534.399Z" fill="#C1CEDC"/>
<path d="M527.517 460.346C525.191 461.691 522.418 462.886 519.109 463.633C512.668 465.128 510.164 467.668 509.269 469.835C508.554 471.703 510.164 473.571 512.49 473.571H505.692C508.643 471.927 506.228 467.444 506.228 467.444C504.439 460.42 501.756 458.627 500.146 454.741C499.43 452.873 498.894 450.482 498.894 446.821C500.861 446.447 502.561 445.849 503.724 445.027C503.455 418.501 506.228 357.378 506.228 357.378L507.212 357.154C512.847 375.759 516.694 390.33 516.694 390.33L529.842 445.625C532.257 446.895 534.583 447.568 536.819 447.867C536.64 451.08 533.867 456.535 527.517 460.346Z" fill="white"/>
<path d="M530.558 178.269C528.411 180.585 525.817 183.425 522.865 186.937L521.971 186.414L516.425 174.757C516.514 174.757 516.604 174.682 516.693 174.682L530.558 178.269Z" fill="#152441"/>
<path d="M521.966 186.413L522.86 186.936C521.787 188.281 520.624 189.701 519.461 191.195C513.2 199.265 510.695 204.122 504.255 219.291L495.579 219.59C499.246 208.979 502.556 190.298 502.824 179.688C504.434 179.015 505.865 178.193 507.118 177.222C509.175 175.802 509.98 173.486 509.264 171.394L508.996 170.497L515.794 174.457L516.331 174.756L521.966 186.413Z" fill="#152441"/>
<path d="M501.213 156.076C496.92 151.219 492.537 145.092 493.878 137.172C501.034 139.637 508.19 143.299 511.857 146.587C519.192 150.921 521.786 156.973 522.591 163.773C523.128 168.854 519.908 172.889 516.598 174.608L515.882 174.384L509.084 170.423L507.743 166.538L508.458 166.388C508.995 163.773 505.149 160.485 501.213 156.076Z" fill="#EB7566"/>
<path d="M493.892 137.172C487.72 135.005 481.458 133.735 477.433 134.258C473.498 132.689 469.92 133.137 467.505 135.005V134.931C461.87 126.487 469.473 120.285 481.548 120.36C486.11 120.36 492.103 122.601 497.917 125.815C498.901 126.338 499.885 126.935 500.868 127.533C507.756 131.867 513.838 137.322 516.164 141.656C517.953 145.093 512.049 146.587 512.049 146.587C508.293 143.3 501.137 139.638 493.892 137.172Z" fill="#152441"/>
<path d="M509.629 243.652L502.921 244.324C499.343 245.071 494.781 244.1 492.545 243.502C491.651 243.278 491.203 243.129 491.203 243.129L485.479 231.173L493.708 228.931L494.155 229.081L497.196 230.127C497.196 230.127 496.391 225.718 497.733 225.046C500.685 223.701 505.336 228.184 509.54 231.771C510.435 232.518 511.24 233.265 512.045 233.863C514.639 237.45 514.907 240.737 514.549 243.129L509.629 243.652Z" fill="#F3BAAB"/>
<path d="M511.953 233.864C511.148 233.266 510.343 232.519 509.448 231.771C509.18 231.472 508.822 231.248 508.554 230.949C508.106 234.237 507.212 237.525 505.333 240.439C504.35 241.934 503.187 243.279 501.756 244.474C502.113 244.399 502.471 244.399 502.829 244.325L509.538 243.652L514.368 243.129C514.904 240.738 514.547 237.525 511.953 233.864Z" fill="#EA6D28"/>
<path d="M509.625 219.067C509.804 225.269 509.625 231.695 509.625 231.695L509.446 231.845C505.332 228.258 500.591 223.7 497.639 225.12C496.297 225.792 497.102 230.201 497.102 230.201L494.061 229.155L495.582 219.59L504.258 219.291L509.625 219.067Z" fill="white"/>
<path d="M509.627 243.651L508.553 268.384L494.331 264.573L492.542 264.125V255.158V243.576C494.778 244.174 499.34 245.145 502.918 244.398L509.627 243.651Z" fill="white"/>
<path d="M509.09 170.425L509.358 171.321C510.074 173.488 509.268 175.73 507.211 177.15C505.87 178.046 504.438 178.868 502.918 179.616C497.372 182.081 490.395 183.053 483.15 182.156C482.256 182.081 481.272 181.857 480.377 181.708L478.141 173.563L477.515 171.321C477.246 169.154 479.483 166.689 482.077 166.24C482.255 167.436 482.882 171.022 483.418 172.891C490.842 175.058 500.95 171.471 502.828 167.212L501.218 161.757C502.56 161.682 505.601 161.832 506.853 164.148L507.658 166.464L509.09 170.425Z" fill="#7DEBC6"/>
<path d="M501.222 156.077C505.157 160.486 509.003 163.774 508.467 166.389L507.751 166.539L506.946 164.222C505.694 161.906 502.653 161.756 501.311 161.831L500.148 157.945C500.595 157.348 500.953 156.75 501.222 156.077Z" fill="#CC536E"/>
<path d="M485.482 447.794C484.051 447.72 483.157 447.72 483.157 447.72C481.636 426.05 469.561 355.437 466.877 327.79V327.566C474.033 327.192 481.278 325.548 485.572 322.559C485.751 316.283 485.393 307.316 484.856 297.826H485.572C493.443 314.116 501.404 337.952 507.307 357.305L506.323 357.529C506.323 357.529 503.64 418.652 503.819 445.179C502.656 446.001 500.957 446.599 498.989 446.972C494.427 447.869 488.613 447.869 485.482 447.794Z" fill="#293855"/>
<path d="M506.225 467.519C506.225 467.519 508.729 471.928 505.688 473.646H451.573C450.141 473.273 450.231 472.75 450.231 472.75C449.694 470.209 451.93 468.192 454.972 466.622C455.598 466.249 456.313 465.95 457.029 465.651C461.68 463.634 466.957 462.662 466.957 462.662C466.957 462.662 470.088 460.869 473.755 458.478C470.714 460.645 468.21 464.68 474.56 465.427C481.09 466.174 496.564 459.823 500.321 454.891C501.752 458.702 504.436 460.495 506.225 467.519Z" fill="#7FF2C9"/>
<path d="M503.721 122.153C507.389 124.32 502.916 127.832 500.77 127.607C499.786 127.01 498.802 126.412 497.818 125.889C497.55 122.078 500.054 119.911 503.721 122.153Z" fill="#FF9F13"/>
<path d="M502.914 179.688C502.646 190.373 499.336 209.054 495.669 219.589L494.149 229.154L493.701 229.004L485.472 231.246L491.197 243.202C491.197 243.202 491.733 243.351 492.539 243.575V255.157C492.539 255.157 485.472 256.278 481.268 255.382C480.731 249.703 480.284 246.041 480.284 246.041C479.479 245.369 478.764 244.472 478.048 243.276L479.39 243.127C474.649 225.941 479.39 195.155 483.236 182.153C490.392 183.05 497.369 182.079 502.914 179.688Z" fill="#7DEBC6"/>
<path d="M477.514 134.182C481.54 133.659 487.711 135.004 493.973 137.096C492.631 145.017 496.924 151.144 501.307 156.001C501.039 156.673 500.681 157.271 500.323 157.869C497.193 162.651 491.558 165.715 485.296 167.807C484.402 167.135 483.418 166.537 482.255 165.79C477.067 162.502 469.733 157.57 469.733 143.522C474.205 142.028 476.352 138.665 477.246 134.182C477.246 134.257 477.336 134.257 477.514 134.182Z" fill="#F3BAAB"/>
<path d="M498.9 446.896C498.9 450.557 499.436 452.948 500.152 454.816C496.484 459.748 480.921 466.1 474.391 465.352C467.951 464.605 470.545 460.57 473.586 458.403C478.774 455.041 484.946 450.408 485.393 447.793C488.613 447.867 494.427 447.867 498.9 446.896Z" fill="#F3BAAB"/>
<path d="M453.542 180.288C453.72 180.138 453.899 180.064 454.078 179.989L475.098 176.402C470.626 181.409 469.374 187.088 463.649 190.077L472.504 195.531C472.504 195.531 466.869 201.733 462.844 203.826C467.585 211.373 472.057 234.163 477.961 243.429C478.676 244.549 479.392 245.521 480.197 246.193C480.197 246.193 480.555 249.78 481.181 255.534C482.165 265.696 483.775 282.658 484.669 297.976C485.295 307.541 485.564 316.433 485.385 322.709C481.091 325.698 473.936 327.342 466.69 327.716C457.209 328.239 447.638 326.371 444.597 322.336C449.785 307.914 455.331 267.414 460.071 246.193C459.803 236.554 452.647 218.471 452.647 218.471L434.847 227.886C434.847 227.886 408.818 227.288 394.596 226.541C394.596 226.168 394.596 225.794 394.596 225.42C394.507 220.788 394.685 219.069 388.335 213.988C396.027 212.194 419.91 206.516 419.91 206.516C419.91 206.516 440.035 188.657 453.542 180.288Z" fill="#152441"/>
<g filter="url(#filter2_d_1_287)">
<path d="M473.665 458.479C469.998 460.87 466.867 462.663 466.867 462.663C466.867 462.663 461.59 463.635 456.938 465.652V465.428C463.021 434.194 441.375 394.965 406.49 395.787C402.197 395.861 391.284 397.655 391.91 404.828C392.447 411.553 398.44 412.973 410.068 417.904C415.972 420.445 422.501 423.733 427.958 428.814C442.806 442.413 447.994 455.714 449.514 460.646C443.342 454.145 436.634 448.541 429.299 444.73C410.694 421.865 391.821 414.617 368.475 421.342C363.287 422.836 357.473 432.326 360.514 435.763C363.645 439.126 369.191 441.517 374.379 439.649C382.429 436.735 400.408 432.998 411.231 439.499C405.954 439.126 400.408 439.574 394.415 441.143C364.987 448.765 369.012 471.182 382.429 472.9C383.055 472.975 383.681 473.05 384.307 473.05V473.722H30.9915C-2.99837 448.317 14.4438 412.226 38.1473 387.941C62.0296 363.432 110.331 357.902 149.33 354.988L139.044 363.432V436.137H283.948L284.574 363.282L263.822 346.245V332.272C313.197 322.857 363.556 268.459 377.778 224.149L394.683 225.27C394.683 225.643 394.683 226.017 394.683 226.39C408.905 227.212 434.934 227.735 434.934 227.735L452.734 218.32C452.734 218.32 459.89 236.478 460.158 246.042C455.418 267.264 449.872 307.763 444.684 322.185C447.815 326.294 457.296 328.088 466.778 327.565V327.789C469.461 355.436 481.536 426.049 483.146 447.719C483.146 447.719 484.041 447.793 485.472 447.793C485.025 450.483 478.763 455.042 473.665 458.479Z" fill="white"/>
</g>
<path d="M476.091 175.431C476.717 174.833 477.432 174.161 478.237 173.638L480.474 181.783C481.368 181.932 482.352 182.082 483.247 182.231C479.4 195.233 474.749 226.018 479.4 243.205L478.059 243.354C472.155 234.089 467.593 211.373 462.942 203.751C466.967 201.659 472.602 195.457 472.602 195.457L463.747 190.002C469.472 187.013 470.724 181.334 475.196 176.328C475.465 176.029 475.733 175.73 476.091 175.431Z" fill="#3867C2"/>
<path d="M482.166 166.314C479.572 166.762 477.247 169.228 477.515 171.395L478.141 173.637C477.336 174.234 476.71 174.832 475.994 175.43C464.456 178.942 456.495 161.83 465.44 146.213C463.382 141.356 464.545 137.247 467.408 135.005C469.823 133.137 473.49 132.614 477.336 134.258C477.247 134.258 477.068 134.258 476.978 134.333C476.084 138.816 473.937 142.178 469.465 143.673C469.465 157.721 476.799 162.652 481.987 165.94C482.166 165.865 482.166 166.015 482.166 166.314Z" fill="#EB7566"/>
<path d="M406.499 395.786C441.294 394.964 462.94 434.193 456.947 465.427V465.651C456.231 465.95 455.605 466.249 454.89 466.623C453.19 464.605 451.401 462.588 449.612 460.72C448.092 455.713 442.814 442.413 428.056 428.888C422.51 423.807 416.07 420.519 410.166 417.978C398.538 413.047 392.635 411.702 392.008 404.902C391.293 397.654 402.205 395.86 406.499 395.786Z" fill="#3DA259"/>
<path d="M450.056 462.663C452.829 464.681 454.528 466.324 454.797 466.549C451.845 468.118 449.609 470.21 450.056 472.676C450.056 472.676 449.967 473.124 451.398 473.573H384.223V472.9C396.656 472.9 405.511 457.208 418.034 454.742C432.167 451.978 443.884 458.254 450.056 462.663Z" fill="#465B7C"/>
<path d="M429.301 444.654C436.725 448.465 443.344 454.069 449.516 460.57C451.573 462.214 454.793 466.697 454.883 466.846C447.548 458.478 432.163 451.977 418.12 454.741C405.597 457.282 396.742 472.899 384.309 472.899C383.683 472.899 383.057 472.824 382.431 472.75C369.014 471.031 364.988 448.614 394.417 440.992C400.409 439.423 406.045 438.975 411.233 439.349C411.769 439.647 412.932 439.199 413.379 439.573C414.989 439.274 415.973 440.021 417.673 440.32C421.608 441.217 425.365 442.562 428.943 444.43C429.033 444.43 429.033 444.504 429.122 444.504C429.211 444.654 429.211 444.654 429.301 444.654Z" fill="#3DA259"/>
<path d="M429.305 444.656C429.215 444.656 429.215 444.581 429.126 444.581C429.126 444.581 429.036 444.506 428.947 444.506C427.605 443.759 422.686 441.219 417.677 440.397C415.619 439.948 413.383 439.575 411.236 439.425C400.413 432.924 382.434 436.586 374.384 439.575C369.286 441.443 363.651 439.126 360.52 435.689C357.389 432.327 363.293 422.762 368.481 421.268C391.826 414.617 410.61 421.865 429.305 444.656Z" fill="#3DA259"/>
<path d="M394.681 225.269L377.775 224.148C378.938 220.636 379.832 217.199 380.458 213.837H388.419C394.77 218.843 394.591 220.562 394.681 225.269Z" fill="#EA6D28"/>
<path d="M367.669 223.03L351.031 228.783L343.607 225.197L319.904 219.443C318.652 219.219 317.668 218.247 317.668 217.201C317.668 215.931 318.92 214.885 320.44 214.885C320.619 214.885 320.798 214.885 320.977 214.96L341.818 218.098L342.444 215.931C343.965 210.551 350.763 207.487 357.024 209.43L371.425 213.913H380.459C379.833 217.276 378.939 220.713 377.776 224.225L367.937 223.553L367.669 223.03Z" fill="#F3BAAB"/>
<path d="M339.41 106.23V155.697C339.41 165.186 330.197 165.715 318.837 165.715H160.068C148.708 165.715 139.495 165.775 139.495 156.285V106.23C139.495 96.7407 148.708 96.522 160.068 96.522H218.924H318.926C330.197 96.522 339.41 96.7407 339.41 106.23ZM246.295 121.554V119.163H243.343V121.554H246.295Z" fill="#2F65B1"/>
<path d="M310.33 220.413C310.33 227.885 306.394 234.535 300.222 239.093C302.369 235.656 303.621 231.696 303.621 227.511V221.309C303.621 207.56 290.294 196.502 273.925 196.502H124.19C123.833 196.502 123.564 196.502 123.207 196.502C125.711 195.904 128.394 195.605 131.167 195.605H280.633C297.002 195.605 310.33 206.664 310.33 220.413Z" fill="#65CA81"/>
<path d="M303.632 221.308V227.51C303.632 231.695 302.38 235.655 300.233 239.092C295.045 242.903 288.158 245.22 280.644 245.22H131.178C114.81 245.22 101.482 234.086 101.482 220.412C101.482 208.979 110.695 199.415 123.218 196.5C123.486 196.5 123.844 196.5 124.201 196.5H273.936C290.305 196.426 303.632 207.559 303.632 221.308ZM285.385 229.079V226.614H274.741V222.429H284.043V219.963H274.741V215.928H285.206V213.462H271.521V228.93H285.385V229.079ZM268.032 216.152V213.612H253.005V216.152H258.909V229.079H262.218V216.152H268.032ZM253.542 229.079L245.402 213.537H242.361L234.221 229.079H237.531L239.409 225.343H248.175L250.054 229.079H253.542ZM232.522 229.079V226.614H222.772V213.612H219.552V229.079H232.522ZM215.706 224.671C215.706 222.056 213.649 220.86 209.713 220.113C206.135 219.44 205.33 218.917 205.33 217.647V217.572C205.33 216.526 206.403 215.779 208.371 215.779C210.071 215.779 211.77 216.302 213.38 217.348L215.08 215.256C213.201 213.985 211.055 213.313 208.371 213.313C204.704 213.313 202.02 215.106 202.02 217.796V217.871C202.02 220.711 204.257 221.682 208.192 222.504C211.591 223.176 212.396 223.774 212.396 224.895V224.97C212.396 226.165 211.144 226.912 209.087 226.912C206.761 226.912 205.062 226.165 203.273 224.895L201.305 226.838C203.541 228.482 206.224 229.304 208.997 229.304C212.933 229.304 215.706 227.585 215.706 224.671ZM197.816 229.079V213.612H194.596V224.297L184.668 213.612H181.627V229.079H184.847V218.095L195.044 229.079H197.816ZM178.496 229.079L170.356 213.537H167.315L159.175 229.079H162.485L164.363 225.343H173.129L175.007 229.079H178.496ZM157.386 229.079L152.377 223.251C154.971 222.653 156.76 221.084 156.76 218.544V218.469C156.76 217.124 156.224 215.928 155.24 215.106C154.077 214.135 152.198 213.537 149.873 213.537H141.644V229.005H144.864V223.625H148.978L153.54 229.005H157.386V229.079ZM138.245 216.152V213.612H123.218V216.152H129.121V229.079H132.431V216.152H138.245Z" fill="#51B66D"/>
<path d="M300.22 239.095C295.211 246.941 285.371 252.321 273.922 252.321H124.188C107.73 252.321 94.4915 241.188 94.4915 227.513V221.311C94.4915 207.861 107.282 196.952 123.293 196.503C110.771 199.418 101.558 209.057 101.558 220.415C101.558 234.089 114.885 245.223 131.254 245.223H280.72C288.055 245.223 294.942 242.906 300.22 239.095Z" fill="#298E45"/>
<path d="M285.38 226.689V229.08H271.516V213.613H285.201V216.079H274.736V220.114H284.038V222.505H274.736V226.689H285.38Z" fill="white"/>
<path d="M284.574 363.283L283.947 436.138V363.283L263.822 377.331V346.246L284.574 363.283Z" fill="#5BAD9F"/>
<path d="M263.826 377.332L283.952 363.284V436.138L237.708 395.489L263.826 377.332Z" fill="#7DEBC6"/>
<path d="M237.715 395.488L283.959 436.137H139.054L183.152 393.993L196.301 381.44C205.066 373.22 212.669 373.37 221.793 381.44L237.715 395.488Z" fill="#7DEBC6"/>
<path d="M268.028 213.613V216.153H262.214V229.08H258.904V216.153H253.001V213.613H268.028Z" fill="white"/>
<path d="M263.828 346.245V377.33L237.709 395.487L221.788 381.439C212.575 373.369 204.972 373.22 196.295 381.439L183.146 393.993L159.801 377.703V346.17L182.431 327.564H241.287L263.828 346.245Z" fill="white"/>
<path d="M263.822 332.271V346.244L241.192 327.638H263.822V332.271Z" fill="white"/>
<path d="M245.393 213.539L253.532 229.081H250.133L248.255 225.345H239.489L237.611 229.081H234.301L242.441 213.539H245.393ZM247.092 222.954L243.872 216.752L240.741 222.954H247.092Z" fill="white"/>
<path d="M243.876 216.751L247.096 222.953H240.656L243.876 216.751Z" fill="#51B66D"/>
<path d="M246.288 119.164H243.337V121.555H246.288V119.164Z" fill="white"/>
<path d="M241.199 327.641H182.432L211.771 303.505L241.199 327.641Z" fill="#5BAD9F"/>
<path d="M238.766 37.3313V86.7974C238.766 96.2872 230.187 96.597 218.827 96.597H160.06H60.0587C48.6989 96.597 39.4858 96.2873 39.4858 86.7976V37.9202C39.4858 28.4304 48.6989 27.3291 60.0587 27.3291H218.827C230.187 27.3291 238.766 27.7668 238.766 37.3313Z" fill="#E3F6FF"/>
<path d="M232.523 226.615V229.08H219.464V213.613H222.773V226.615H232.523Z" fill="white"/>
<path d="M215.701 224.674C215.701 227.588 213.018 229.307 209.082 229.307C206.22 229.307 203.626 228.485 201.39 226.841L203.358 224.898C205.147 226.168 206.936 226.916 209.172 226.916C211.229 226.916 212.481 226.168 212.481 224.973V224.898C212.481 223.777 211.766 223.179 208.277 222.507C204.342 221.685 202.105 220.714 202.105 217.874V217.799C202.105 215.109 204.699 213.316 208.456 213.316C211.14 213.316 213.286 213.989 215.165 215.259L213.465 217.351C211.766 216.305 210.156 215.782 208.456 215.782C206.578 215.782 205.415 216.604 205.415 217.575V217.65C205.415 218.846 206.309 219.369 209.798 220.116C213.644 220.938 215.701 222.133 215.701 224.674Z" fill="white"/>
<path d="M197.806 213.613V229.08H195.122L184.925 218.096V229.08H181.705V213.613H184.657L194.585 224.298V213.613H197.806Z" fill="white"/>
<path d="M159.806 377.705L183.152 393.995L139.054 436.138V363.284L159.806 377.705Z" fill="#7DEBC6"/>
<path d="M182.431 327.638L159.801 346.244V327.638H182.431Z" fill="white"/>
<path d="M170.348 213.539L178.487 229.081H175.088L173.21 225.345H164.444L162.566 229.081H159.256L167.396 213.539H170.348ZM172.047 222.954L168.827 216.752L165.607 222.954H172.047Z" fill="white"/>
<path d="M168.838 216.751L172.058 222.953H165.618L168.838 216.751Z" fill="#51B66D"/>
<path d="M159.806 346.246V377.705L139.054 363.283L149.341 354.839L159.806 346.246Z" fill="#5BAD9F"/>
<path d="M152.374 223.252L157.383 229.08H153.537L148.975 223.7H144.86V229.08H141.64V213.613H149.869C152.195 213.613 153.984 214.211 155.236 215.182C156.22 216.004 156.757 217.199 156.757 218.544V218.619C156.846 221.085 154.968 222.654 152.374 223.252ZM153.537 218.694C153.537 216.975 152.105 216.079 149.69 216.079H144.95V221.234H149.69C152.016 221.309 153.537 220.263 153.537 218.694Z" fill="white"/>
<path d="M153.533 218.696C153.533 220.339 152.013 221.311 149.687 221.311H144.946V216.155H149.687C152.102 216.08 153.533 217.052 153.533 218.696Z" fill="#51B66D"/>
<path d="M138.234 213.613V216.153H132.42V229.08H129.11V216.153H123.207V213.613H138.234Z" fill="white"/>
<path d="M176.267 119.536H186.374C189.058 119.536 191.204 120.208 192.636 121.329C193.62 122.151 194.156 123.197 194.156 124.542V124.617C194.156 127.232 192.278 128.502 190.399 129.25C193.262 129.922 195.498 131.342 195.498 134.032V134.107C195.498 137.544 192.099 139.561 186.822 139.561H176.267V119.536Z" fill="#E3F6FF"/>
<path d="M186.017 128.428C189.237 128.428 191.473 127.233 191.473 124.916V124.842C191.473 122.899 189.595 121.629 186.196 121.629H178.951V128.503H186.017V128.428Z" fill="#2F65B1"/>
<path d="M186.914 137.396C190.492 137.396 192.729 136.051 192.729 133.884V133.809C192.729 131.642 190.582 130.372 186.378 130.372H178.864V137.396H186.914Z" fill="#2F65B1"/>
<path d="M199.339 132.166C199.339 127.981 203.185 124.469 208.552 124.469C213.83 124.469 217.676 127.907 217.676 132.091V132.166C217.676 136.276 213.74 139.862 208.463 139.862C203.096 139.788 199.339 136.276 199.339 132.166Z" fill="#E3F6FF"/>
<path d="M214.396 132.653C214.396 129.44 211.534 126.824 207.867 126.824C204.02 126.824 201.427 129.44 201.427 132.503V132.578C201.427 135.716 204.199 138.257 207.956 138.257C211.802 138.332 214.396 135.716 214.396 132.653Z" fill="#2F65B1"/>
<path d="M222.334 124.768H224.928V127.309C226.091 125.74 227.879 124.469 230.921 124.469C235.125 124.469 237.629 126.861 237.629 130.373V139.489H235.035V130.896C235.035 128.206 233.246 126.487 230.205 126.487C227.164 126.487 224.928 128.355 224.928 131.12V139.489H222.334V124.768Z" fill="#E3F6FF"/>
<path d="M240.221 143.896V142.103C240.668 142.177 241.116 142.177 241.473 142.177C242.636 142.177 243.441 141.58 243.441 140.235V124.767H246.035V140.309C246.035 142.925 244.425 144.12 241.742 144.12C241.205 144.046 240.847 144.046 240.221 143.896Z" fill="#E3F6FF"/>
<path d="M251.139 132.166C251.139 127.981 254.985 124.469 260.352 124.469C265.629 124.469 269.475 127.907 269.475 132.091V132.166C269.475 136.276 265.54 139.862 260.262 139.862C254.985 139.788 251.139 136.276 251.139 132.166Z" fill="#E3F6FF"/>
<path d="M266.789 132.165C266.789 128.951 263.927 126.336 260.26 126.336C256.413 126.336 253.819 128.951 253.819 132.015V132.09C253.819 135.228 256.592 137.769 260.349 137.769C264.106 137.843 266.789 135.228 266.789 132.165Z" fill="#2F65B1"/>
<path d="M273.945 133.883V124.767H276.539V133.36C276.539 136.05 278.328 137.769 281.369 137.769C284.321 137.769 286.646 135.901 286.646 133.136V124.767H289.24V139.413H286.646V136.872C285.484 138.441 283.695 139.712 280.653 139.712C276.36 139.712 273.945 137.395 273.945 133.883Z" fill="#E3F6FF"/>
<path d="M295.147 124.768H297.741V128.579C298.993 126.113 301.587 124.395 304.897 124.469V126.861H304.718C300.872 126.861 297.741 129.177 297.741 133.586V139.414H295.147V124.768Z" fill="#E3F6FF"/>
<path d="M99.9673 53.7805H102.651V62.5978H116.336V53.7805H119.02V73.6567H116.336V64.7647H102.651V73.6567H99.9673V53.7805Z" fill="#2F65B1"/>
<path d="M133.062 72.089C135.477 72.089 137.176 71.2671 138.607 69.9968L140.217 71.1923C138.428 72.8362 136.282 73.9571 132.972 73.9571C128.142 73.9571 124.206 70.8934 124.206 66.2606C124.206 62.0015 127.784 58.5642 132.614 58.5642C137.802 58.5642 140.843 62.0015 140.843 66.3354C140.843 66.5595 140.843 66.7837 140.843 67.0826H126.89C127.247 70.2957 130.02 72.089 133.062 72.089Z" fill="#2F65B1"/>
<path d="M138.247 65.439C137.978 62.749 136.1 60.5073 132.612 60.5073C129.57 60.5073 127.245 62.5996 126.887 65.439H138.247Z" fill="#E3F6FF"/>
<path d="M148.272 52.959H145.678V73.6571H148.272V52.959Z" fill="#2F65B1"/>
<path d="M157.219 52.959H154.625V73.6571H157.219V52.959Z" fill="#2F65B1"/>
<path d="M162.218 66.4083C162.218 62.2239 166.064 58.7119 171.431 58.7119C176.708 58.7119 180.554 62.1492 180.554 66.3336V66.4083C180.554 70.5181 176.619 74.1048 171.341 74.1048C166.064 74.0301 162.218 70.5181 162.218 66.4083Z" fill="#2F65B1"/>
<path d="M177.882 66.4104C177.882 63.1973 175.019 60.582 171.352 60.582C167.506 60.582 164.912 63.1973 164.912 66.261V66.3357C164.912 69.474 167.685 72.0146 171.442 72.0146C175.288 72.0893 177.882 69.474 177.882 66.4104Z" fill="#E3F6FF"/>
<path d="M508.46 170.126L516.42 174.759L521.966 186.416" stroke="black" stroke-width="0.513889" stroke-linecap="round" stroke-linejoin="round"/>
<path d="M453.547 180.288C455.783 185.518 455.873 202.854 452.474 211.97" stroke="black" stroke-width="0.513889" stroke-linecap="round" stroke-linejoin="round"/>
<path d="M456.937 280.343L477.957 281.912" stroke="black" stroke-width="0.513889" stroke-linecap="round" stroke-linejoin="round"/>
<path d="M516.425 283.929L539.413 281.911" stroke="black" stroke-width="0.513889" stroke-linecap="round" stroke-linejoin="round"/>
<path d="M139.054 363.284V436.138L183.152 393.995L139.054 363.284Z" stroke="#5BAD9F" stroke-width="2.05556" stroke-linecap="round" stroke-linejoin="round"/>
<path d="M237.708 395.489L283.952 436.138V363.284L237.708 395.489Z" stroke="#5BAD9F" stroke-width="2.05556" stroke-linecap="round" stroke-linejoin="round"/>
<path d="M263.828 377.706V327.642H159.801V377.706" stroke="#465B7C" stroke-width="2.05556" stroke-linecap="round" stroke-linejoin="round"/>
<path d="M174.204 344.602H249.34" stroke="#465B7C" stroke-width="2.05556" stroke-linecap="round" stroke-linejoin="round"/>
<path d="M188.868 363.284H234.755" stroke="#465B7C" stroke-width="2.05556" stroke-linecap="round" stroke-linejoin="round"/>
<path d="M339.409 67.0083V46.9826C339.409 39.4356 332.075 33.3083 323.04 33.3083H265.615" stroke="#2F65B1" stroke-width="2.05556" stroke-linecap="round" stroke-linejoin="round"/>
<path d="M291.37 2C298.258 15.6742 279.474 34.7285 265.431 33.2341" stroke="#2F65B1" stroke-width="2.05556" stroke-linecap="round" stroke-linejoin="round"/>
<path d="M291.555 64.6167C298.443 50.9424 279.659 31.8882 265.615 33.3826" stroke="#2F65B1" stroke-width="2.05556" stroke-linecap="round" stroke-linejoin="round"/>
<path d="M39.4858 129.326V149.351C39.4858 156.898 46.8205 163.026 55.8547 163.026H113.369" stroke="#2F65B1" stroke-width="2.05556" stroke-linecap="round" stroke-linejoin="round"/>
<path d="M87.521 194.337C80.6336 180.662 99.4175 161.608 113.461 163.103" stroke="#2F65B1" stroke-width="2.05556" stroke-linecap="round" stroke-linejoin="round"/>
<path d="M87.3448 131.644C80.4573 145.318 99.2412 164.372 113.284 162.878" stroke="#2F65B1" stroke-width="2.05556" stroke-linecap="round" stroke-linejoin="round"/>
<path d="M508.46 170.126L516.42 174.759L521.966 186.416" stroke="black" stroke-width="0.513889" stroke-linecap="round" stroke-linejoin="round"/>
<path d="M475.187 176.403L454.167 179.99C440.571 188.21 420.088 206.367 420.088 206.367C420.088 206.367 396.205 212.046 388.513 213.839C395.311 219.294 394.595 220.863 394.774 226.393C408.996 227.215 435.025 227.738 435.025 227.738L452.825 218.323C452.825 218.323 459.981 236.48 460.249 246.045C455.509 267.266 449.963 307.766 444.775 322.187C450.231 329.361 475.545 329.51 485.563 322.561C486.189 300.518 480.375 246.045 480.375 246.045C473.308 239.843 468.299 212.196 463.022 203.752C467.047 201.66 472.682 195.458 472.682 195.458L463.827 190.003C470.715 186.416 471.072 178.944 478.318 173.564" stroke="black" stroke-width="0.513889" stroke-linecap="round" stroke-linejoin="round"/>
<path d="M303.634 255.163V273.246" stroke="black" stroke-width="2.05556" stroke-linecap="round" stroke-linejoin="round"/>
<path d="M311.698 241.936L336.028 234.688" stroke="black" stroke-width="2.05556" stroke-linecap="round" stroke-linejoin="round"/>
<path d="M311.698 252.323L330.214 264.204" stroke="black" stroke-width="2.05556" stroke-linecap="round" stroke-linejoin="round"/>
<path d="M96.5723 255.163V273.246" stroke="black" stroke-width="2.05556" stroke-linecap="round" stroke-linejoin="round"/>
<path d="M88.5176 241.936L64.188 234.688" stroke="black" stroke-width="2.05556" stroke-linecap="round" stroke-linejoin="round"/>
<path d="M88.5209 252.323L70.0054 264.204" stroke="black" stroke-width="2.05556" stroke-linecap="round" stroke-linejoin="round"/>
<path d="M501.305 161.833C502.646 161.759 505.688 161.908 506.94 164.224L509.355 171.398C510.071 173.565 509.265 175.806 507.208 177.226C500.768 181.784 490.571 183.727 480.374 181.709L477.601 171.323C477.333 169.156 479.569 166.69 482.163 166.242" stroke="black" stroke-width="0.513889" stroke-linecap="round" stroke-linejoin="round"/>
<path d="M501.298 161.831L502.909 167.285C501.03 171.47 490.923 175.131 483.499 172.964C482.962 171.096 482.336 167.51 482.157 166.314C482.067 166.09 482.067 165.94 482.067 165.94C483.23 166.688 484.304 167.285 485.109 167.958C491.37 165.866 497.005 162.802 500.136 158.02L501.298 161.831Z" fill="#F3BAAB"/>
<path d="M484.842 170.426C485.11 171.173 485.468 172.518 486.094 173.415C487.346 173.564 488.688 173.564 490.03 173.489C490.656 173.116 491.192 172.742 491.729 172.294C493.16 171.098 494.234 169.604 495.218 168.109C497.007 165.27 498.169 162.356 499.243 159.367C496.023 163.327 490.835 166.017 485.289 167.885C484.842 167.586 484.394 167.213 483.858 166.914C484.037 168.109 484.394 169.305 484.842 170.426Z" fill="#EA6D28"/>
<path d="M211.758 301.265V253.144" stroke="#2B00FF" stroke-width="2.05556" stroke-linecap="round" stroke-linejoin="round"/>
</g>
<defs>
<filter id="filter0_d_1_287" x="10" y="0.971924" width="717" height="477.274" filterUnits="userSpaceOnUse" color-interpolation-filters="sRGB">
<feFlood flood-opacity="0" result="BackgroundImageFix"/>
<feColorMatrix in="SourceAlpha" type="matrix" values="0 0 0 0 0 0 0 0 0 0 0 0 0 0 0 0 0 0 127 0" result="hardAlpha"/>
<feOffset dy="2"/>
<feGaussianBlur stdDeviation="1"/>
<feComposite in2="hardAlpha" operator="out"/>
<feColorMatrix type="matrix" values="0 0 0 0 0 0 0 0 0 0 0 0 0 0 0 0 0 0 0.25 0"/>
<feBlend mode="normal" in2="BackgroundImageFix" result="effect1_dropShadow_1_287"/>
<feBlend mode="normal" in="SourceGraphic" in2="effect1_dropShadow_1_287" result="shape"/>
</filter>
<filter id="filter1_d_1_287" x="368.374" y="81.2617" width="368.625" height="406.387" filterUnits="userSpaceOnUse" color-interpolation-filters="sRGB">
<feFlood flood-opacity="0" result="BackgroundImageFix"/>
<feColorMatrix in="SourceAlpha" type="matrix" values="0 0 0 0 0 0 0 0 0 0 0 0 0 0 0 0 0 0 127 0" result="hardAlpha"/>
<feOffset dy="2"/>
<feGaussianBlur stdDeviation="6"/>
<feComposite in2="hardAlpha" operator="out"/>
<feColorMatrix type="matrix" values="0 0 0 0 0 0 0 0 0 0 0 0 0 0 0 0 0 0 0.25 0"/>
<feBlend mode="normal" in2="BackgroundImageFix" result="effect1_dropShadow_1_287"/>
<feBlend mode="normal" in="SourceGraphic" in2="effect1_dropShadow_1_287" result="shape"/>
</filter>
<filter id="filter2_d_1_287" x="0" y="208.32" width="497.472" height="279.402" filterUnits="userSpaceOnUse" color-interpolation-filters="sRGB">
<feFlood flood-opacity="0" result="BackgroundImageFix"/>
<feColorMatrix in="SourceAlpha" type="matrix" values="0 0 0 0 0 0 0 0 0 0 0 0 0 0 0 0 0 0 127 0" result="hardAlpha"/>
<feOffset dy="2"/>
<feGaussianBlur stdDeviation="6"/>
<feComposite in2="hardAlpha" operator="out"/>
<feColorMatrix type="matrix" values="0 0 0 0 0 0 0 0 0 0 0 0 0 0 0 0 0 0 0.25 0"/>
<feBlend mode="normal" in2="BackgroundImageFix" result="effect1_dropShadow_1_287"/>
<feBlend mode="normal" in="SourceGraphic" in2="effect1_dropShadow_1_287" result="shape"/>
</filter>
</defs>
</svg>
